<?xml version="1.0" standalone="no"?>
<!DOCTYPE svg PUBLIC "-//W3C//DTD SVG 20010904//EN"
 "http://www.w3.org/TR/2001/REC-SVG-20010904/DTD/svg10.dtd">
<svg version="1.0" xmlns="http://www.w3.org/2000/svg"
 width="666.000000pt" height="375.000000pt" viewBox="0 0 666.000000 375.000000"
 preserveAspectRatio="xMidYMid meet">

<g transform="translate(0.000000,375.000000) scale(0.100000,-0.100000)"
fill="#000000" stroke="none">
<path d="M3809 2843 c-1 -5 -1 -12 0 -17 1 -4 -3 -14 -10 -22 -6 -8 -9 -21 -5
-29 3 -9 2 -14 -3 -11 -4 3 -13 -10 -18 -28 -10 -34 -10 -34 26 -42 20 -5 42
-8 48 -7 7 0 11 -3 8 -7 -6 -10 41 -41 49 -33 13 14 5 39 -24 68 -27 28 -29
34 -20 65 10 34 5 54 -8 33 -5 -8 -13 -9 -22 -3 -12 8 -11 10 5 11 17 1 16 2
-5 10 -22 8 -21 8 8 4 20 -3 31 -1 27 5 -7 12 -54 14 -56 3z"/>
<path d="M3660 2590 c14 -4 36 -8 50 -8 22 0 22 1 -5 8 -16 4 -39 8 -50 8 -16
0 -15 -2 5 -8z"/>
<path d="M4138 2550 l-66 -40 15 -40 c10 -26 20 -37 27 -32 6 5 41 21 79 36
50 21 67 33 67 48 0 10 -4 17 -8 14 -5 -3 -8 5 -8 17 1 15 -5 22 -16 21 -10
-1 -15 2 -12 7 10 17 -12 8 -78 -31z"/>
<path d="M3740 2571 c0 -5 6 -14 14 -20 10 -9 15 -8 19 3 4 11 1 13 -10 9 -11
-4 -14 -2 -9 5 4 7 2 12 -3 12 -6 0 -11 -4 -11 -9z"/>
<path d="M3786 2545 c-9 -26 -7 -32 5 -12 6 10 9 21 6 23 -2 3 -7 -2 -11 -11z"/>
<path d="M3810 2541 c0 -5 7 -12 16 -15 8 -3 12 -11 8 -17 -4 -8 -3 -9 4 -5
15 9 16 -6 2 -20 -7 -7 -6 -11 4 -11 8 0 15 3 14 6 -2 20 3 31 13 26 6 -4 8
-10 5 -13 -9 -9 15 -32 33 -32 11 1 8 5 -9 15 -14 8 -21 14 -16 15 5 0 3 7 -4
15 -7 8 -16 12 -21 9 -5 -3 -9 -1 -9 3 0 5 -9 14 -20 21 -11 7 -20 8 -20 3z"/>
<path d="M3800 2509 c0 -5 5 -7 10 -4 6 3 10 8 10 11 0 2 -4 4 -10 4 -5 0 -10
-5 -10 -11z"/>
<path d="M2780 2470 c-46 -23 -121 -65 -166 -95 -82 -53 -244 -198 -244 -218
0 -5 9 -2 19 7 12 11 21 14 26 7 3 -6 4 -12 1 -12 -12 -3 -26 -7 -33 -9 -5 -1
-11 -2 -15 -1 -4 0 -21 -19 -37 -43 -25 -35 -28 -45 -16 -50 9 -3 15 1 15 10
0 8 4 13 9 10 5 -3 7 -14 4 -24 -2 -10 2 -24 11 -31 12 -10 17 -9 26 9 6 12 9
28 6 35 -2 7 2 19 10 25 10 9 14 9 14 1 0 -6 -6 -11 -12 -12 -7 0 -4 -4 7 -9
11 -5 14 -9 8 -9 -7 -1 -13 -7 -13 -15 0 -7 -11 -39 -25 -71 -14 -32 -24 -60
-21 -62 2 -3 0 -18 -6 -34 -12 -35 -32 -28 -23 8 3 14 0 32 -7 41 -10 12 -10
14 0 8 19 -11 14 9 -7 28 -18 16 -18 72 0 60 5 -3 6 2 3 10 -11 28 -21 17 -53
-55 -45 -101 -62 -170 -66 -279 -2 -52 -2 -85 1 -72 3 12 9 22 14 22 10 0 25
-88 16 -97 -3 -4 -6 8 -6 27 0 28 -2 31 -15 20 -21 -17 -19 -78 4 -191 50
-239 163 -457 340 -656 45 -51 84 -93 87 -93 6 0 3 5 -47 80 -112 169 -169
360 -169 564 0 144 23 237 90 364 49 93 50 97 50 183 0 144 42 302 111 421 22
37 76 105 120 152 45 48 79 86 77 86 -2 0 -42 -18 -88 -40z m-226 -172 c-4 -7
-19 -29 -34 -48 -15 -19 -39 -55 -53 -80 -15 -25 -27 -41 -27 -36 0 5 -8 2
-17 -5 -13 -10 -12 -6 4 16 11 17 23 39 25 50 2 11 10 19 16 18 7 -2 12 2 12
7 0 6 -6 10 -12 10 -7 1 -3 6 10 13 12 7 19 16 15 21 -4 4 1 4 11 0 14 -5 17
-4 12 4 -4 7 -1 12 9 12 9 0 14 4 11 9 -4 5 0 12 6 14 19 8 20 8 12 -5z m-123
-101 c-10 -9 -11 -8 -5 6 3 10 9 15 12 12 3 -3 0 -11 -7 -18z m-155 -232 c-9
-21 -16 -48 -16 -60 0 -13 -7 -26 -16 -29 -14 -5 -15 -4 -5 8 6 8 11 18 9 22
-3 12 34 106 39 100 2 -2 -3 -21 -11 -41z m23 -22 c-10 -12 -10 -16 2 -24 11
-7 9 -9 -8 -9 -13 0 -23 5 -23 10 0 18 24 49 32 43 5 -2 3 -11 -3 -20z m21
-103 c0 -5 -4 -10 -9 -10 -6 0 -13 5 -16 10 -3 6 1 10 9 10 9 0 16 -4 16 -10z
m12 -35 c-2 -14 -9 -25 -14 -25 -5 0 -7 3 -5 8 2 4 7 15 10 25 9 25 15 21 9
-8z m-21 -86 c-5 -13 -10 -19 -10 -12 -1 15 10 45 15 40 3 -2 0 -15 -5 -28z
m-94 -36 c-3 -10 -5 -2 -5 17 0 19 2 27 5 18 2 -10 2 -26 0 -35z"/>
<path d="M3768 2493 c7 -3 16 -2 19 1 4 3 -2 6 -13 5 -11 0 -14 -3 -6 -6z"/>
<path d="M3729 2480 c-1 -3 -1 -8 0 -12 0 -5 -7 -8 -16 -8 -15 0 -16 -2 -3
-10 12 -8 10 -10 -10 -11 l-25 -1 25 -7 c22 -6 23 -8 7 -14 -11 -4 -24 -4 -30
0 -7 3 -9 3 -5 -2 4 -4 36 -9 71 -10 43 -2 75 -10 98 -24 59 -36 175 -22 192
24 7 17 -4 20 -19 5 -11 -11 -30 -12 -109 -9 -45 1 -47 2 -21 10 16 4 33 6 37
3 4 -2 11 1 15 7 5 8 3 9 -6 4 -10 -6 -12 -4 -6 10 5 15 4 16 -9 5 -8 -7 -15
-8 -15 -2 0 5 -26 13 -57 17 -47 6 -55 9 -41 19 13 9 8 11 -28 11 -24 0 -44
-2 -45 -5z m56 -51 c-26 -7 -25 -8 10 -4 22 3 54 7 70 10 29 5 28 4 -3 -5 -18
-6 -30 -15 -27 -19 3 -5 -3 -8 -12 -6 -10 2 -36 7 -58 11 -33 5 -37 8 -20 14
11 5 31 8 45 8 23 0 23 -1 -5 -9z"/>
<path d="M4125 2281 c-14 -44 1 -51 106 -51 l99 0 0 29 c0 37 -12 41 -115 41
-73 0 -84 -2 -90 -19z"/>
<path d="M3808 2203 c7 -3 16 -2 19 1 4 3 -2 6 -13 5 -11 0 -14 -3 -6 -6z"/>
<path d="M3933 2203 c9 -2 25 -2 35 0 9 3 1 5 -18 5 -19 0 -27 -2 -17 -5z"/>
<path d="M3940 2168 c0 -17 -3 -23 -19 -35 -22 -17 -36 -16 -22 1 10 11 7 14
-12 12 -20 -1 -22 -4 -13 -19 9 -14 7 -21 -6 -31 -10 -7 -18 -18 -18 -24 0 -5
-7 -13 -16 -16 -26 -10 -29 -7 -8 9 10 8 14 15 7 15 -6 0 -15 -4 -18 -10 -3
-5 -11 -10 -16 -10 -6 0 -7 5 -3 11 4 8 0 7 -15 -1 -12 -6 -19 -15 -16 -20 3
-6 -5 -15 -19 -22 -27 -12 -34 -32 -15 -43 15 -10 123 47 125 67 2 18 44 68
44 52 0 -5 -7 -21 -17 -34 -15 -24 -15 -23 14 3 41 38 78 104 58 104 -8 0 -15
-4 -15 -9z m-112 -122 c27 -1 27 -2 1 -17 -33 -17 -68 -19 -62 -2 3 8 13 11
27 8 18 -5 18 -4 -4 10 -17 11 -18 14 -5 9 11 -4 30 -8 43 -8z"/>
<path d="M3850 2109 c0 -5 5 -7 10 -4 6 3 10 8 10 11 0 2 -4 4 -10 4 -5 0 -10
-5 -10 -11z"/>
<path d="M4071 2039 c-6 -18 -11 -33 -11 -34 0 -8 92 -65 101 -63 7 2 13 -4
14 -12 0 -21 29 -24 45 -5 11 13 10 15 -3 10 -10 -5 -15 -1 -14 12 2 13 -4 18
-23 16 -14 -1 -19 1 -12 4 7 2 17 13 22 23 8 15 3 22 -26 39 -20 12 -40 18
-46 15 -6 -4 -8 -2 -5 3 4 6 0 14 -9 17 -22 8 -21 9 -33 -25z m109 -29 c11 -7
11 -10 2 -10 -7 0 -10 -4 -7 -10 3 -5 1 -10 -5 -10 -7 0 -10 6 -7 14 3 8 1 17
-6 20 -7 2 -7 5 -2 5 6 0 17 -4 25 -9z"/>
<path d="M2341 1960 c0 -33 1 -34 11 -12 8 17 8 26 0 34 -9 9 -12 4 -11 -22z"/>
<path d="M3218 1979 c17 -5 32 -14 32 -20 0 -6 7 -8 16 -5 10 4 13 2 8 -6 -5
-8 2 -9 22 -4 18 4 24 3 16 -2 -10 -7 -8 -11 9 -15 15 -4 30 0 42 11 11 9 21
15 22 12 2 -3 6 -2 9 1 11 11 -108 39 -160 38 -47 -1 -48 -1 -16 -10z"/>
<path d="M4214 1982 c-9 -5 -8 -10 2 -19 8 -8 15 -9 19 -3 3 6 0 10 -7 11 -7
0 -4 4 7 9 13 6 15 9 5 9 -8 0 -20 -3 -26 -7z"/>
<path d="M3502 1878 c54 -49 58 -56 60 -103 l3 -50 -43 -14 c-42 -13 -44 -14
-37 -47 5 -31 4 -34 -17 -34 -46 0 -100 -21 -105 -41 -4 -13 -14 -19 -34 -19
-16 0 -29 -3 -29 -7 1 -18 27 -39 50 -40 70 -3 144 -44 259 -141 l34 -29 -12
-91 c-13 -108 -32 -155 -106 -269 -31 -46 -52 -89 -49 -95 5 -7 2 -8 -5 -4 -8
5 -14 0 -18 -13 -3 -12 -9 -21 -14 -21 -5 0 -9 -5 -9 -10 0 -27 -136 -130
-170 -130 -12 1 -11 4 4 15 19 14 19 15 1 15 -10 0 -15 3 -11 7 4 4 15 8 24 8
42 0 100 172 89 265 -10 86 -107 243 -107 174 0 -9 6 -14 13 -11 9 3 13 -14
14 -69 0 -43 -3 -74 -9 -74 -6 0 -7 -7 -4 -16 7 -18 -13 -84 -26 -84 -4 0 -11
-18 -14 -40 -4 -22 -11 -40 -15 -40 -5 0 -2 -17 6 -37 11 -28 11 -33 1 -21 -7
10 -17 14 -21 10 -4 -4 -5 9 -2 29 8 57 -10 128 -45 174 -30 39 -85 85 -101
85 -4 0 -8 -87 -9 -194 l-3 -194 -85 28 c-145 48 -213 93 -277 182 -19 26 -39
46 -44 43 -5 -3 -18 -1 -30 5 -19 11 -20 10 -14 -12 46 -148 211 -337 363
-416 133 -69 211 -87 397 -87 137 0 172 3 245 23 177 48 320 124 431 229 38
37 69 73 68 82 -3 31 1 42 12 35 8 -4 7 -9 -2 -15 -9 -5 -9 -9 -3 -9 11 0 42
37 78 94 10 16 14 26 8 22 -19 -11 -43 5 -37 25 4 11 2 19 -4 19 -6 0 -11 4
-11 9 0 5 11 8 25 6 22 -2 25 1 19 19 -4 11 -3 18 1 14 5 -5 9 -22 10 -39 2
-29 1 -30 -12 -14 -12 18 -13 18 -13 -1 0 -31 38 -28 54 4 7 15 11 33 8 41 -3
9 0 11 9 6 8 -5 10 -4 6 0 -4 5 -14 10 -22 11 -11 2 -12 -2 -5 -16 6 -12 5
-23 -6 -36 -14 -18 -15 -18 -9 3 4 14 -2 30 -19 50 l-25 28 -1 -32 c0 -25 -3
-30 -19 -26 -10 2 -25 -3 -35 -12 -15 -15 -16 -14 -17 17 -1 18 -3 25 -6 16
-2 -10 -11 -18 -18 -18 -19 0 -32 23 -16 28 9 3 8 9 -4 22 -19 21 -12 40 14
40 17 0 36 45 25 61 -2 4 -38 10 -80 14 -62 6 -82 12 -100 31 -27 26 -31 39
-9 30 22 -8 18 4 -7 26 -21 18 -22 18 -49 -8 -32 -30 -30 -67 2 -38 17 15 19
15 36 -2 17 -17 17 -18 0 -11 -10 4 -28 0 -43 -9 -13 -9 -28 -14 -31 -10 -4 4
-8 71 -8 149 -2 164 -11 208 -70 332 -54 114 -145 208 -250 261 -22 11 -15 1
27 -38z m378 -637 c0 -5 -8 -11 -17 -15 -10 -3 -25 -9 -33 -12 -8 -4 -4 3 9
15 25 22 41 27 41 12z m-573 -128 c5 -49 -6 -37 -12 12 -3 21 -2 36 1 32 4 -3
9 -23 11 -44z m322 -147 c6 -8 25 -19 42 -26 16 -7 28 -15 25 -17 -4 -4 -65
25 -96 46 -13 9 -13 11 1 11 9 0 22 -6 28 -14z m-79 -9 c0 -2 -13 -16 -30 -32
-16 -16 -30 -26 -30 -22 0 3 12 18 27 32 27 24 33 28 33 22z m285 -117 c3 -6
-1 -7 -9 -4 -18 7 -21 14 -7 14 6 0 13 -4 16 -10z m-597 -55 l27 6 -30 -26
c-17 -16 -23 -24 -12 -21 21 7 23 -10 1 -18 -9 -3 -38 -6 -65 -6 l-49 0 43 43
c32 33 44 40 50 29 6 -9 18 -12 35 -7z m712 -5 c55 -33 60 -34 60 -22 0 5 -10
14 -22 19 -20 9 -17 10 18 8 23 -1 46 -5 52 -9 6 -3 13 0 15 6 4 9 6 10 6 1 1
-18 -18 -26 -33 -14 -7 6 -16 8 -19 4 -12 -12 -7 -23 11 -23 16 -1 16 -1 0
-11 -14 -8 -33 -2 -83 26 -58 33 -75 45 -60 45 2 0 27 -13 55 -30z"/>
<path d="M3227 1429 c7 -7 15 -10 18 -7 3 3 -2 9 -12 12 -14 6 -15 5 -6 -5z"/>
<path d="M3230 1365 c-11 -13 -10 -14 3 -10 22 9 26 -4 17 -52 -4 -24 -3 -40
1 -37 5 3 9 16 9 29 0 13 4 35 10 49 8 21 7 24 -7 19 -11 -4 -14 -3 -9 5 11
17 -9 15 -24 -3z"/>
<path d="M4105 1280 c3 -5 14 -10 23 -10 15 0 15 2 2 10 -20 13 -33 13 -25 0z"/>
<path d="M4065 1230 c-3 -6 -21 -17 -38 -24 -27 -12 -28 -15 -10 -15 12 -1 28
-4 36 -7 10 -3 17 4 21 22 7 28 2 42 -9 24z"/>
<path d="M4107 1218 c-8 -28 -5 -31 17 -15 16 11 16 15 3 25 -12 10 -16 8 -20
-10z"/>
<path d="M3966 1215 c-28 -21 -10 -39 19 -18 14 10 25 21 25 26 0 11 -23 8
-44 -8z"/>
<path d="M4160 1206 c0 -2 7 -7 16 -10 8 -3 12 -2 9 4 -6 10 -25 14 -25 6z"/>
<path d="M4304 1176 c-16 -17 -27 -56 -17 -56 8 0 36 61 30 66 -1 1 -7 -4 -13
-10z"/>
<path d="M4275 1089 c-5 -15 -9 -18 -15 -9 -6 9 -10 7 -15 -9 -12 -40 7 -45
27 -7 11 21 17 40 15 43 -3 2 -8 -5 -12 -18z"/>
<path d="M4100 1020 c0 -5 5 -10 11 -10 5 0 7 5 4 10 -3 6 -8 10 -11 10 -2 0
-4 -4 -4 -10z"/>
</g>
</svg>
